<svg width="24" height="24" viewBox="0 0 24 24" fill="none" xmlns="http://www.w3.org/2000/svg">
<path d="M21.2 2H2.8C2.3575 2 2 2.3575 2 2.8V21.2C2 21.6425 2.3575 22 2.8 22H21.2C21.6425 22 22 21.6425 22 21.2V2.8C22 2.3575 21.6425 2 21.2 2ZM20.4 20.4H15.7975V14.255H18.3975L18.7875 11.2375H15.7975V9.31C15.7975 8.435 16.04 7.84 17.2925 7.84H18.89V5.14C18.6125 5.1025 17.665 5.02 16.56 5.02C14.255 5.02 12.6775 6.4275 12.6775 9.01V11.235H10.0725V14.2525H12.68V20.4H3.6V3.6H20.4V20.4Z" fill="black"/>
</svg>
