<svg width="24" height="24" viewBox="0 0 24 24" fill="none" xmlns="http://www.w3.org/2000/svg">
<path d="M11.9906 6.86081C10.976 6.86081 9.98424 7.16167 9.14065 7.72534C8.29705 8.28901 7.63955 9.09017 7.25129 10.0275C6.86303 10.9649 6.76144 11.9963 6.95937 12.9914C7.15731 13.9865 7.64588 14.9005 8.36329 15.6179C9.08071 16.3354 9.99475 16.8239 10.9898 17.0219C11.9849 17.2198 13.0164 17.1182 13.9537 16.7299C14.8911 16.3417 15.6922 15.6842 16.2559 14.8406C16.8196 13.997 17.1204 13.0052 17.1204 11.9906C17.1221 11.3165 16.9905 10.6487 16.7333 10.0256C16.4761 9.40245 16.0983 8.83629 15.6216 8.35961C15.1449 7.88294 14.5788 7.50514 13.9557 7.24793C13.3325 6.99072 12.6647 6.85916 11.9906 6.86081V6.86081ZM11.9906 15.3312C11.3299 15.3312 10.684 15.1353 10.1347 14.7682C9.5853 14.4012 9.15712 13.8794 8.90427 13.269C8.65143 12.6586 8.58527 11.9869 8.71417 11.3389C8.84307 10.6909 9.16124 10.0956 9.62843 9.62843C10.0956 9.16124 10.6909 8.84307 11.3389 8.71417C11.9869 8.58527 12.6586 8.65143 13.269 8.90427C13.8794 9.15712 14.4012 9.5853 14.7682 10.1347C15.1353 10.684 15.3312 11.3299 15.3312 11.9906C15.3312 12.8766 14.9793 13.7263 14.3528 14.3528C13.7263 14.9793 12.8766 15.3312 11.9906 15.3312ZM18.5342 6.64811C18.5342 6.89557 18.4609 7.13747 18.3234 7.34322C18.1859 7.54898 17.9905 7.70934 17.7619 7.80404C17.5333 7.89874 17.2817 7.92352 17.039 7.87524C16.7963 7.82696 16.5733 7.7078 16.3984 7.53282C16.2234 7.35784 16.1042 7.1349 16.0559 6.8922C16.0077 6.6495 16.0324 6.39793 16.1271 6.1693C16.2218 5.94068 16.3822 5.74528 16.588 5.6078C16.7937 5.47031 17.0356 5.39693 17.2831 5.39693C17.6149 5.39693 17.9331 5.52875 18.1678 5.76339C18.4024 5.99804 18.5342 6.31628 18.5342 6.64811ZM21.9249 7.89928C21.9613 6.34385 21.3811 4.83715 20.3109 3.70785C19.1876 2.62394 17.6802 2.02997 16.1195 2.0563C14.493 1.98123 9.48827 1.98123 7.86174 2.0563C6.30679 2.02263 4.80109 2.60244 3.67032 3.67032C2.6001 4.79962 2.01991 6.30632 2.0563 7.86174C1.98123 9.48827 1.98123 14.493 2.0563 16.1195C2.01991 17.6749 2.6001 19.1816 3.67032 20.3109C4.80109 21.3788 6.30679 21.9586 7.86174 21.9249C9.51329 22.025 14.4679 22.025 16.1195 21.9249C17.6749 21.9613 19.1816 21.3811 20.3109 20.3109C21.3811 19.1816 21.9613 17.6749 21.9249 16.1195C22 14.493 22 9.48827 21.9249 7.86174V7.89928ZM19.7979 17.9087C19.6281 18.339 19.3716 18.7298 19.0445 19.057C18.7173 19.3841 18.3265 19.6406 17.8962 19.8104C15.9538 20.2031 13.9682 20.3378 11.9906 20.2108C10.0172 20.338 8.03566 20.2033 6.09759 19.8104C5.66726 19.6406 5.27642 19.3841 4.94928 19.057C4.62214 18.7298 4.36568 18.339 4.19581 17.9087C3.67032 16.5824 3.78292 13.4545 3.78292 12.0031C3.78292 10.5518 3.67032 7.41132 4.19581 6.09759C4.36089 5.66302 4.61552 5.26802 4.94315 4.93822C5.27079 4.60843 5.66411 4.35123 6.09759 4.1833C8.03566 3.7904 10.0172 3.65577 11.9906 3.78292C13.9682 3.65599 15.9538 3.79061 17.8962 4.1833C18.3265 4.35317 18.7173 4.60963 19.0445 4.93677C19.3716 5.26391 19.6281 5.65475 19.7979 6.08508C20.3234 7.41132 20.1983 10.5393 20.1983 11.9906C20.1983 13.442 20.3234 16.5824 19.7979 17.8962V17.9087Z" fill="black"/>
</svg>
